<svg width="192" height="32" viewBox="0 0 192 32" fill="none" xmlns="http://www.w3.org/2000/svg">
<path fill-rule="evenodd" clip-rule="evenodd" d="M0.141022 17.9448C0.103621 17.9448 0.0677532 17.9597 0.0413064 17.9861C0.0148597 18.0125 0 18.0483 0 18.0857V18.4928C0 26.0403 5.796 32.0002 12.9444 32.0002H15.4306C15.4745 32.0004 15.5174 31.9869 15.5532 31.9617C15.5891 31.9364 15.6162 31.9007 15.6309 31.8594L20.3382 18.3195C20.3528 18.2771 20.357 18.2318 20.3506 18.1874C20.3441 18.1431 20.3272 18.1009 20.3011 18.0644C20.275 18.0279 20.2406 17.9981 20.2007 17.9776C20.1608 17.957 20.1165 17.9463 20.0717 17.9462L0.141022 17.9448Z" fill="white"/>
<path fill-rule="evenodd" clip-rule="evenodd" d="M13.6725 0.0535144C6.48034 0.0535144 0.640625 6.15011 0.640625 13.6708V13.9174C0.640625 13.9547 0.65548 13.9906 0.681927 14.017C0.708374 14.0434 0.744246 14.0582 0.781647 14.0582H1.97046L17.9243 14.0061C20.4204 14.0061 22.6499 12.3749 23.5031 9.92106C24.2773 7.70104 26.4857 1.35932 26.8876 0.187329C26.8951 0.166027 26.8973 0.143259 26.8941 0.12092C26.8909 0.0985817 26.8824 0.0773448 26.8693 0.0589826C26.8561 0.0406203 26.8388 0.0256746 26.8187 0.0154096C26.7985 0.00514455 26.7762 -0.000133404 26.7537 2.56185e-06L13.6725 0.0535144Z" fill="white"/>
<path d="M33.4826 21.3607C32.0724 19.9169 31.3574 18.1603 31.3574 16.0656C31.3574 13.9414 32.0625 12.1863 33.4826 10.7706C34.9281 9.32671 36.7148 8.61816 38.8415 8.61816C41.5914 8.61816 44.0297 10.0268 45.1635 12.2708L42.5278 13.8006C41.8748 12.4412 40.514 11.62 38.8133 11.62C38.23 11.6056 37.6499 11.7107 37.1088 11.9287C36.5678 12.1467 36.0771 12.4731 35.6671 12.8878C34.8449 13.7329 34.4204 14.7852 34.4204 16.06C34.4055 16.6449 34.5082 17.2269 34.7223 17.7715C34.9364 18.3161 35.2577 18.8123 35.6671 19.2308C36.0765 19.6467 36.5669 19.9743 37.108 20.1936C37.6491 20.4128 38.2295 20.519 38.8133 20.5057C40.4858 20.5057 41.903 19.6605 42.5842 18.3251L45.2199 19.8295C44.0015 22.096 41.5914 23.5117 38.8415 23.5117C36.7148 23.5117 34.9253 22.8032 33.4826 21.3607Z" fill="white"/>
<path d="M48.2832 21.3607C46.8377 19.9168 46.1016 18.1602 46.1016 16.0656C46.1016 13.971 46.8377 12.2144 48.2832 10.7706C49.7286 9.32671 51.5154 8.61816 53.5842 8.61816C55.6826 8.61816 57.4397 9.32249 58.8866 10.7706C60.3335 12.2186 61.0682 13.9696 61.0682 16.0656C61.0682 18.1617 60.3321 19.9168 58.8866 21.3607C57.4411 22.8045 55.6826 23.5131 53.5842 23.5131C51.5154 23.5117 49.7329 22.8031 48.2832 21.3607ZM53.5842 20.5394C54.1677 20.5538 54.7479 20.4488 55.2893 20.2307C55.8306 20.0127 56.3215 19.6863 56.7318 19.2717C57.5779 18.4265 58.001 17.3461 58.001 16.0727C58.001 14.7992 57.5779 13.7216 56.7318 12.8722C55.8883 12.0555 54.7597 11.5987 53.5849 11.5987C52.4101 11.5987 51.2815 12.0555 50.438 12.8722C49.5919 13.7174 49.1688 14.7978 49.1688 16.0727C49.1688 17.3475 49.5919 18.4223 50.438 19.2717C50.8482 19.686 51.3389 20.012 51.88 20.2298C52.4211 20.4476 53.001 20.5525 53.5842 20.538V20.5394Z" fill="white"/>
<path d="M84.2193 14.3649V23.1421H81.1578V14.5621C81.1578 12.6083 80.11 11.4758 78.4092 11.4758C76.5097 11.4758 75.318 12.7224 75.318 15.2143V23.1421H72.2565V14.5621C72.2565 12.6083 71.2933 11.4758 69.5926 11.4758C67.7494 11.4758 66.4464 12.7506 66.4464 15.2143V23.1421H63.3848V8.98385H66.4464V10.6827C67.3531 9.29657 68.714 8.61621 70.4993 8.61621C72.3143 8.61621 73.6469 9.35291 74.5255 10.8531C75.4605 9.35291 76.9059 8.61621 78.8619 8.61621C82.0659 8.61621 84.2193 10.8531 84.2193 14.3649Z" fill="white"/>
<path d="M100.235 10.7954C101.624 12.2392 102.305 13.9944 102.305 16.0623C102.305 18.1569 101.624 19.9135 100.235 21.3573C98.8457 22.8012 97.2014 23.5098 95.2454 23.5098C93.092 23.5098 91.4477 22.7167 90.2842 21.1306V28.8048H87.2227V8.98385H90.2842V11.0236C91.4477 9.40929 93.092 8.61621 95.2454 8.61621C97.2014 8.61621 98.8457 9.35293 100.235 10.7954ZM94.7645 20.5925C96.0337 20.5925 97.1168 20.1699 97.9671 19.3247C98.8133 18.4457 99.2363 17.3709 99.2363 16.0679C99.2363 14.7649 98.8133 13.6887 97.9671 12.8393C97.121 11.9617 96.0393 11.5363 94.7645 11.5363C93.4897 11.5363 92.4108 11.9589 91.5605 12.8393C90.7144 13.6845 90.2913 14.7607 90.2913 16.0679C90.2913 17.3709 90.7144 18.4457 91.5605 19.3247C92.4108 20.1699 93.4883 20.5939 94.7645 20.5939V20.5925Z" fill="white"/>
<path d="M115.851 8.98385H118.913V23.1421H115.851V21.1038C114.689 22.7181 113.045 23.5112 110.89 23.5112C108.934 23.5112 107.29 22.8068 105.901 21.3588C104.512 19.9107 103.832 18.1301 103.832 16.0637C103.832 13.9676 104.512 12.2125 105.901 10.7686C107.29 9.32476 108.934 8.61621 110.89 8.61621C113.045 8.61621 114.689 9.40926 115.851 10.9954V8.98385ZM111.372 20.5939C112.649 20.5939 113.726 20.1713 114.577 19.3261C115.423 18.4471 115.846 17.3723 115.846 16.0693C115.846 14.7663 115.423 13.6901 114.577 12.8407C113.73 11.9631 112.649 11.5377 111.372 11.5377C110.096 11.5377 109.02 11.9603 108.17 12.8407C107.318 13.6859 106.893 14.7621 106.894 16.0693C106.894 17.3723 107.317 18.4471 108.17 19.3261C109.02 20.1699 110.091 20.5939 111.372 20.5939Z" fill="white"/>
<path d="M125.115 11.3592C125.88 9.60408 127.354 8.7251 129.486 8.7251V12.0382C128.396 11.9325 127.306 12.2335 126.425 12.8834C125.546 13.5074 125.12 14.554 125.12 15.9993V23.134H122.059V8.98426H125.12L125.115 11.3592Z" fill="white"/>
<path d="M142.3 8.98385H145.361V23.1421H142.3V21.1038C141.138 22.7181 139.493 23.5112 137.338 23.5112C135.382 23.5112 133.738 22.8068 132.349 21.3588C130.96 19.9107 130.28 18.1301 130.28 16.0637C130.28 13.9676 130.96 12.2125 132.349 10.7686C133.738 9.32476 135.382 8.61621 137.338 8.61621C139.493 8.61621 141.138 9.40926 142.3 10.9954V8.98385ZM137.821 20.5939C139.09 20.5939 140.174 20.1713 141.025 19.3261C141.871 18.4471 142.294 17.3723 142.294 16.0693C142.294 14.7663 141.871 13.6901 141.025 12.8407C140.179 11.9631 139.097 11.5377 137.821 11.5377C136.544 11.5377 135.468 11.9603 134.618 12.8407C133.766 13.6859 133.343 14.7621 133.349 16.0693C133.349 17.3723 133.772 18.4471 134.618 19.3261C135.474 20.1699 136.544 20.5939 137.821 20.5939Z" fill="white"/>
<path d="M156.213 11.9294H152.697V18.7247C152.697 20.5376 153.889 20.5094 156.213 20.3953V23.1422C151.535 23.7056 149.636 22.4379 149.636 18.7247V11.9294H147.028V8.98392H149.636V5.92577L152.697 5.02002V8.98392H156.213V11.9294Z" fill="white"/>
<path d="M158.374 6.29515C158.014 5.9261 157.816 5.43016 157.82 4.91533C157.825 4.4005 158.034 3.90844 158.4 3.54624C158.766 3.18405 159.261 2.98106 159.776 2.98145C160.292 2.98183 160.786 3.18557 161.152 3.54831C161.335 3.72821 161.48 3.9431 161.578 4.18016C161.675 4.41723 161.724 4.6716 161.722 4.92802C161.719 5.18444 161.664 5.43768 161.561 5.67258C161.458 5.90748 161.309 6.11922 161.122 6.29515C160.943 6.47663 160.729 6.62069 160.493 6.71901C160.257 6.81733 160.004 6.86796 159.748 6.86796C159.492 6.86796 159.239 6.81733 159.004 6.71901C158.768 6.62069 158.554 6.47663 158.374 6.29515ZM158.233 23.1424V8.98422H161.294V23.1424H158.233Z" fill="white"/>
<path d="M173.99 8.98438H177.335L171.807 23.1426H168.263L162.735 8.98438H166.076L170.045 19.745L173.99 8.98438Z" fill="white"/>
<path d="M180.601 17.3671C181.055 19.5181 182.784 20.707 185.138 20.707C186.753 20.707 187.972 20.1125 188.795 18.9518L191.317 20.4253C189.928 22.4918 187.858 23.5116 185.112 23.5116C182.815 23.5116 180.945 22.8073 179.527 21.4155C178.109 20.0003 177.4 18.216 177.401 16.0627C177.401 13.9385 178.106 12.1833 179.498 10.7676C180.887 9.32378 182.702 8.61523 184.885 8.61523C186.954 8.61523 188.655 9.35195 189.988 10.7958C191.32 12.2397 192 14.0244 192 16.0909C191.995 16.5181 191.957 16.9443 191.887 17.3657L180.601 17.3671ZM188.907 14.8752C188.484 12.5805 186.867 11.3917 184.854 11.3917C182.585 11.3917 180.999 12.7228 180.573 14.8752H188.907Z" fill="white"/>
</svg>
